<?xml version="1.0" standalone="no"?>
<svg viewBox="0 0 200 200" xmlns="http://www.w3.org/2000/svg">
  <path fill="#FEDCD2" d="M24.8,-46.9C29.9,-40.1,30,-28.8,41.2,-20.2C52.4,-11.6,74.7,-5.8,75.7,0.6C76.7,7,56.5,14,43.3,19.1C30.1,24.1,23.8,27.2,17.7,34.6C11.7,42.1,5.8,53.8,-1.7,56.8C-9.3,59.7,-18.6,54,-28.3,48.7C-38.1,43.4,-48.3,38.6,-53,30.6C-57.7,22.5,-56.9,11.3,-51.5,3.1C-46.1,-5,-36.1,-10.1,-30.7,-16.9C-25.3,-23.7,-24.4,-32.2,-20.1,-39.4C-15.7,-46.6,-7.8,-52.5,1,-54.3C9.9,-56,19.8,-53.7,24.8,-46.9Z" transform="translate(100 100)" />
</svg>
